<svg width="16" height="16" fill="none" xmlns="http://www.w3.org/2000/svg"><path d="M5.263 11.702C4.421 11.702 4 11.29 4 10.454V5.546c0-.827.421-1.248 1.263-1.248h5.474c.842 0 1.263.42 1.263 1.248v4.908c0 .835-.421 1.248-1.263 1.248H5.263Zm-.058-.69h5.583c.348 0 .522-.166.522-.522V6.7c0-.37-.203-.558-.551-.558H5.24c-.355 0-.551.188-.551.559v3.789c0 .356.181.523.515.523Zm1.99-3.368c-.175 0-.226-.05-.226-.21v-.29c0-.168.051-.226.225-.226h.276c.174 0 .232.058.232.225v.29c0 .16-.058.211-.232.211h-.276Zm1.335 0c-.174 0-.225-.05-.225-.21v-.29c0-.168.05-.226.225-.226h.276c.174 0 .225.058.225.225v.29c0 .16-.051.211-.225.211H8.53Zm1.336 0c-.182 0-.233-.05-.233-.21v-.29c0-.168.051-.226.233-.226h.268c.175 0 .233.058.233.225v.29c0 .16-.059.211-.233.211h-.268Zm-4 1.307c-.175 0-.233-.044-.233-.21v-.284c0-.174.058-.225.233-.225h.276c.174 0 .225.051.225.225v.283c0 .167-.051.211-.225.211h-.276Zm1.328 0c-.174 0-.225-.044-.225-.21v-.284c0-.174.051-.225.225-.225h.276c.174 0 .232.051.232.225v.283c0 .167-.058.211-.232.211h-.276Zm1.336 0c-.174 0-.225-.044-.225-.21v-.284c0-.174.05-.225.225-.225h.276c.174 0 .225.051.225.225v.283c0 .167-.051.211-.225.211H8.53Zm1.336 0c-.182 0-.233-.044-.233-.21v-.284c0-.174.051-.225.233-.225h.268c.175 0 .233.051.233.225v.283c0 .167-.059.211-.233.211h-.268Zm-4 1.314c-.175 0-.233-.05-.233-.225v-.283c0-.167.058-.21.233-.21h.276c.174 0 .225.043.225.21v.283c0 .174-.051.225-.225.225h-.276Zm1.328 0c-.174 0-.225-.05-.225-.225v-.283c0-.167.051-.21.225-.21h.276c.174 0 .232.043.232.21v.283c0 .174-.058.225-.232.225h-.276Zm1.336 0c-.174 0-.225-.05-.225-.225v-.283c0-.167.05-.21.225-.21h.276c.174 0 .225.043.225.21v.283c0 .174-.051.225-.225.225H8.53Z" fill="#fff"/></svg>