<svg width="14" height="14" viewBox="0 0 14 14" fill="none" xmlns="http://www.w3.org/2000/svg">
<path d="M4.33783 10.2764C3.59861 10.2764 3.229 9.91311 3.229 9.18029V4.87245C3.229 4.14598 3.59861 3.77637 4.33783 3.77637H9.14274C9.88194 3.77637 10.2515 4.14598 10.2515 4.87245V9.18029C10.2515 9.91311 9.88194 10.2764 9.14274 10.2764H4.33783ZM4.28684 9.67095H9.1873C9.49322 9.67095 9.64618 9.52438 9.64618 9.21214V5.88568C9.64618 5.56068 9.4677 5.39499 9.16185 5.39499H4.31871C4.00645 5.39499 3.83439 5.56068 3.83439 5.88568V9.21214C3.83439 9.52438 3.99371 9.67095 4.28684 9.67095ZM6.03292 6.71411C5.87998 6.71411 5.83537 6.6695 5.83537 6.5293V6.27441C5.83537 6.12784 5.87998 6.07685 6.03292 6.07685H6.27508C6.42802 6.07685 6.479 6.12784 6.479 6.27441V6.5293C6.479 6.6695 6.42802 6.71411 6.27508 6.71411H6.03292ZM7.20545 6.71411C7.05256 6.71411 7.00792 6.6695 7.00792 6.5293V6.27441C7.00792 6.12784 7.05256 6.07685 7.20545 6.07685H7.44761C7.60057 6.07685 7.6452 6.12784 7.6452 6.27441V6.5293C7.6452 6.6695 7.60057 6.71411 7.44761 6.71411H7.20545ZM8.37801 6.71411C8.21873 6.71411 8.17409 6.6695 8.17409 6.5293V6.27441C8.17409 6.12784 8.21873 6.07685 8.37801 6.07685H8.61378C8.76674 6.07685 8.8177 6.12784 8.8177 6.27441V6.5293C8.8177 6.6695 8.76674 6.71411 8.61378 6.71411H8.37801ZM4.86674 7.86117C4.71381 7.86117 4.66282 7.82293 4.66282 7.67637V7.42781C4.66282 7.27492 4.71381 7.23029 4.86674 7.23029H5.1089C5.26184 7.23029 5.30645 7.27492 5.30645 7.42781V7.67637C5.30645 7.82293 5.26184 7.86117 5.1089 7.86117H4.86674ZM6.03292 7.86117C5.87998 7.86117 5.83537 7.82293 5.83537 7.67637V7.42781C5.83537 7.27492 5.87998 7.23029 6.03292 7.23029H6.27508C6.42802 7.23029 6.479 7.27492 6.479 7.42781V7.67637C6.479 7.82293 6.42802 7.86117 6.27508 7.86117H6.03292ZM7.20545 7.86117C7.05256 7.86117 7.00792 7.82293 7.00792 7.67637V7.42781C7.00792 7.27492 7.05256 7.23029 7.20545 7.23029H7.44761C7.60057 7.23029 7.6452 7.27492 7.6452 7.42781V7.67637C7.6452 7.82293 7.60057 7.86117 7.44761 7.86117H7.20545ZM8.37801 7.86117C8.21873 7.86117 8.17409 7.82293 8.17409 7.67637V7.42781C8.17409 7.27492 8.21873 7.23029 8.37801 7.23029H8.61378C8.76674 7.23029 8.8177 7.27492 8.8177 7.42781V7.67637C8.8177 7.82293 8.76674 7.86117 8.61378 7.86117H8.37801ZM4.86674 9.01461C4.71381 9.01461 4.66282 8.96998 4.66282 8.81702V8.56853C4.66282 8.42197 4.71381 8.38373 4.86674 8.38373H5.1089C5.26184 8.38373 5.30645 8.42197 5.30645 8.56853V8.81702C5.30645 8.96998 5.26184 9.01461 5.1089 9.01461H4.86674ZM6.03292 9.01461C5.87998 9.01461 5.83537 8.96998 5.83537 8.81702V8.56853C5.83537 8.42197 5.87998 8.38373 6.03292 8.38373H6.27508C6.42802 8.38373 6.479 8.42197 6.479 8.56853V8.81702C6.479 8.96998 6.42802 9.01461 6.27508 9.01461H6.03292ZM7.20545 9.01461C7.05256 9.01461 7.00792 8.96998 7.00792 8.81702V8.56853C7.00792 8.42197 7.05256 8.38373 7.20545 8.38373H7.44761C7.60057 8.38373 7.6452 8.42197 7.6452 8.56853V8.81702C7.6452 8.96998 7.60057 9.01461 7.44761 9.01461H7.20545Z" fill="white"/>
</svg>
