<svg width="10" height="7" viewBox="0 0 10 7" fill="none" xmlns="http://www.w3.org/2000/svg">
<path d="M5.21701 0.742676C5.10311 0.742676 4.99061 0.761816 4.88373 0.79873L0.939201 2.18369C0.805607 2.23154 0.717013 2.35459 0.717013 2.49268C0.717013 2.63076 0.805607 2.75381 0.939201 2.80166L1.75342 3.0874C1.52279 3.44014 1.39201 3.85713 1.39201 4.296V4.68018C1.39201 5.06846 1.24014 5.46904 1.07842 5.78486C0.987013 5.9626 0.882951 6.1376 0.762013 6.29893C0.717013 6.35771 0.704357 6.43428 0.72967 6.504C0.754982 6.57373 0.814045 6.62568 0.88717 6.64346L1.78717 6.86221C1.84623 6.87725 1.90951 6.86631 1.96154 6.83486C2.01358 6.80342 2.05014 6.75147 2.06139 6.69268C2.18233 6.10752 2.12186 5.58252 2.03186 5.20654C1.98686 5.0124 1.92639 4.81416 1.84201 4.63232V4.296C1.84201 3.88311 1.98545 3.49346 2.23436 3.18174C2.41576 2.96982 2.65061 2.79893 2.92623 2.69365L5.13404 1.8501C5.24936 1.80635 5.38014 1.86104 5.42514 1.97314C5.47014 2.08525 5.41389 2.2124 5.29858 2.25615L3.09076 3.09971C2.91639 3.1667 2.76311 3.26924 2.63795 3.39502L4.88233 4.18252C4.9892 4.21943 5.1017 4.23857 5.21561 4.23857C5.32951 4.23857 5.44201 4.21943 5.54889 4.18252L9.49483 2.80166C9.62842 2.75518 9.71701 2.63076 9.71701 2.49268C9.71701 2.35459 9.62842 2.23154 9.49483 2.18369L5.55029 0.79873C5.44342 0.761816 5.33092 0.742676 5.21701 0.742676ZM2.51701 5.8833C2.51701 6.36592 3.72639 6.86768 5.21701 6.86768C6.70764 6.86768 7.91701 6.36592 7.91701 5.8833L7.70186 3.89541L5.70217 4.59814C5.54608 4.65283 5.38154 4.68018 5.21701 4.68018C5.05248 4.68018 4.88654 4.65283 4.73186 4.59814L2.73217 3.89541L2.51701 5.8833Z" fill="white"/>
</svg>
