<svg width="16" height="16" fill="none" xmlns="http://www.w3.org/2000/svg"><path d="M8 5.277a.907.907 0 0 0-.296.05L4.198 6.558A.293.293 0 0 0 4 6.833c0 .123.079.232.198.275l.723.253a1.96 1.96 0 0 0-.32 1.075v.341c0 .345-.136.701-.28.982a3.204 3.204 0 0 1-.28.457.191.191 0 0 0-.03.182.198.198 0 0 0 .14.124l.8.195a.204.204 0 0 0 .155-.024.19.19 0 0 0 .09-.127c.107-.52.053-.987-.027-1.32A2.633 2.633 0 0 0 5 8.734v-.3c0-.366.128-.713.349-.99.161-.188.37-.34.615-.434l1.962-.75a.202.202 0 0 1 .26.11c.04.1-.01.213-.113.252l-1.963.75a1.15 1.15 0 0 0-.402.262l1.995.7a.907.907 0 0 0 .592 0l3.508-1.227A.292.292 0 0 0 12 6.833a.293.293 0 0 0-.197-.275l-3.507-1.23A.907.907 0 0 0 8 5.277Zm-2.4 4.57c0 .429 1.075.875 2.4.875s2.4-.446 2.4-.875l-.191-1.767-1.778.624a1.306 1.306 0 0 1-.862 0L5.79 8.08l-.19 1.767Z" fill="#fff"/></svg>