<svg width="15" height="15" viewBox="0 0 15 15" fill="none" xmlns="http://www.w3.org/2000/svg">
<g clip-path="url(#clip0_678_32735)">
<path d="M6.21698 7.59966L3.67912 10.1291C3.62893 10.0431 3.60742 9.87114 3.60742 9.60603V5.56463C3.60742 5.30666 3.62893 5.13469 3.66477 5.05587L6.21698 7.59966ZM7.66513 7.97224C7.54326 7.97224 7.40705 7.93643 7.2565 7.80032L4.0304 4.56861C4.12359 4.49695 4.3315 4.42529 4.63977 4.42529H10.6762C10.9844 4.42529 11.1995 4.49695 11.2927 4.56861L8.06662 7.80032C7.92325 7.92932 7.79419 7.97224 7.66513 7.97224ZM9.08462 7.59966L11.6369 5.05587C11.6727 5.13469 11.7014 5.30666 11.7014 5.56463V9.60603C11.7014 9.87114 11.6727 10.0431 11.6225 10.1291L9.08462 7.59966ZM7.65797 8.55984C7.92325 8.55984 8.12396 8.47384 8.4107 8.20873L8.64731 7.99374L11.264 10.6092C11.178 10.688 10.9772 10.7453 10.669 10.7453H4.63977C4.33867 10.7453 4.13077 10.688 4.04474 10.6092L6.66863 7.99374L6.90521 8.20873C7.18481 8.47384 7.39271 8.55984 7.65797 8.55984Z" fill="white"/>
</g>
<defs>
<clipPath id="clip0_678_32735">
<rect width="14.625" height="14.625" fill="white" transform="translate(0.345703 0.269287)"/>
</clipPath>
</defs>
</svg>
