<svg width="8" height="10" viewBox="0 0 8 10" fill="none" xmlns="http://www.w3.org/2000/svg">
<g clip-path="url(#clip0_678_32748)">
<path d="M1.70947 2.99265V1.97664C1.70947 1.74285 1.83916 1.53191 2.03447 1.44929L3.53447 0.816479C3.64697 0.769019 3.77197 0.769019 3.88604 0.816479L5.38603 1.44929C5.58135 1.53191 5.71104 1.74109 5.71104 1.97664V2.99265H5.70635C5.70947 3.03835 5.71104 3.08582 5.71104 3.13328V3.8364C5.71104 5.07917 4.81572 6.0864 3.71104 6.0864C2.60635 6.0864 1.71104 5.07917 1.71104 3.8364V3.13328C1.71104 3.08582 1.7126 3.03835 1.71572 2.99265H1.70947ZM2.45947 3.8364C2.45947 4.61335 3.01885 5.24265 3.70947 5.24265C4.4001 5.24265 4.95947 4.61335 4.95947 3.8364V3.55515H2.45947V3.8364ZM2.22666 6.4239L3.52666 7.97781C3.6251 8.09558 3.79229 8.09558 3.89072 7.97781L5.19072 6.4239C6.34229 6.68582 7.20791 7.83015 7.20791 9.203C7.20791 9.50183 6.99229 9.74265 6.72822 9.74265H0.68916C0.425098 9.74265 0.209473 9.50007 0.209473 9.203C0.209473 7.83015 1.07666 6.68582 2.22666 6.4239ZM3.45947 1.5864V1.86765H3.20947C3.14072 1.86765 3.08447 1.93093 3.08447 2.00828V2.28953C3.08447 2.36687 3.14072 2.43015 3.20947 2.43015H3.45947V2.7114C3.45947 2.78875 3.51572 2.85203 3.58447 2.85203H3.83447C3.90322 2.85203 3.95947 2.78875 3.95947 2.7114V2.43015H4.20947C4.27822 2.43015 4.33447 2.36687 4.33447 2.28953V2.00828C4.33447 1.93093 4.27822 1.86765 4.20947 1.86765H3.95947V1.5864C3.95947 1.50906 3.90322 1.44578 3.83447 1.44578H3.58447C3.51572 1.44578 3.45947 1.50906 3.45947 1.5864Z" fill="white"/>
</g>
<defs>
<clipPath id="clip0_678_32748">
<rect width="7" height="9" fill="white" transform="translate(0.209473 0.742676)"/>
</clipPath>
</defs>
</svg>
