<svg width="16" height="16" fill="none" xmlns="http://www.w3.org/2000/svg"><g clip-path="url(#a)"><path d="M5.714 5.75V4.734c0-.234.148-.445.372-.527L7.8 3.574a.585.585 0 0 1 .402 0l1.714.633a.563.563 0 0 1 .371.527V5.75h-.005c.004.046.005.093.005.14v.704c0 1.242-1.023 2.25-2.285 2.25-1.263 0-2.286-1.007-2.286-2.25V5.89c0-.048.002-.095.005-.141h-.007Zm.857.844C6.571 7.37 7.211 8 8 8c.79 0 1.429-.63 1.429-1.406v-.282H6.57v.282ZM6.305 9.18l1.486 1.554a.29.29 0 0 0 .416 0l1.486-1.554c1.316.262 2.305 1.407 2.305 2.78 0 .298-.246.539-.548.539H4.548A.545.545 0 0 1 4 11.96c0-1.373.991-2.517 2.305-2.779Zm1.41-4.837v.281h-.286a.142.142 0 0 0-.143.14v.282c0 .077.064.14.143.14h.285v.282c0 .077.065.14.143.14h.286a.142.142 0 0 0 .143-.14v-.282h.285a.142.142 0 0 0 .143-.14v-.281a.142.142 0 0 0-.143-.141h-.285v-.281a.142.142 0 0 0-.143-.14h-.286a.142.142 0 0 0-.143.14Z" fill="#fff"/></g><defs><clipPath id="a"><path fill="#fff" transform="translate(4 3.5)" d="M0 0h8v9H0z"/></clipPath></defs></svg>