<svg width="10" height="8" viewBox="0 0 10 8" fill="none" xmlns="http://www.w3.org/2000/svg">
<path d="M1.64538 0.813721C1.13456 0.813721 0.719238 1.22904 0.719238 1.73986V6.37058C0.719238 6.88141 1.13456 7.29672 1.64538 7.29672H8.12838C8.63921 7.29672 9.05453 6.88141 9.05453 6.37058V1.73986C9.05453 1.22904 8.63921 0.813721 8.12838 0.813721H1.64538ZM2.80306 4.51829H3.7292C4.36882 4.51829 4.88688 5.03635 4.88688 5.67597C4.88688 5.80332 4.78269 5.90751 4.65535 5.90751H1.87692C1.74957 5.90751 1.64538 5.80332 1.64538 5.67597C1.64538 5.03635 2.16344 4.51829 2.80306 4.51829ZM4.19227 3.12908C4.19227 3.6399 3.77696 4.05522 3.26613 4.05522C2.75531 4.05522 2.33999 3.6399 2.33999 3.12908C2.33999 2.61825 2.75531 2.20294 3.26613 2.20294C3.77696 2.20294 4.19227 2.61825 4.19227 3.12908ZM6.04456 2.66601H7.89685C8.02419 2.66601 8.12838 2.7702 8.12838 2.89754C8.12838 3.02489 8.02419 3.12908 7.89685 3.12908H6.04456C5.91722 3.12908 5.81303 3.02489 5.81303 2.89754C5.81303 2.7702 5.91722 2.66601 6.04456 2.66601ZM6.04456 3.59215H7.89685C8.02419 3.59215 8.12838 3.69634 8.12838 3.82369C8.12838 3.95103 8.02419 4.05522 7.89685 4.05522H6.04456C5.91722 4.05522 5.81303 3.95103 5.81303 3.82369C5.81303 3.69634 5.91722 3.59215 6.04456 3.59215ZM6.04456 4.51829H7.89685C8.02419 4.51829 8.12838 4.62248 8.12838 4.74983C8.12838 4.87717 8.02419 4.98136 7.89685 4.98136H6.04456C5.91722 4.98136 5.81303 4.87717 5.81303 4.74983C5.81303 4.62248 5.91722 4.51829 6.04456 4.51829Z" fill="white"/>
</svg>
