<svg width="16" height="16" fill="none" xmlns="http://www.w3.org/2000/svg"><path d="M4.889 4.875c-.49 0-.889.4-.889.893v4.464c0 .492.399.893.889.893h6.222c.49 0 .889-.4.889-.893V5.768a.892.892 0 0 0-.889-.893H4.89ZM6 8.446h.889c.614 0 1.111.5 1.111 1.116 0 .123-.1.224-.222.224H5.11a.223.223 0 0 1-.222-.224c0-.616.497-1.116 1.111-1.116Zm1.333-1.339A.892.892 0 0 1 6.444 8c-.49 0-.888-.4-.888-.893 0-.492.398-.893.888-.893s.89.4.89.893Zm1.778-.446h1.778a.223.223 0 0 1 0 .446H9.11a.223.223 0 0 1 0-.446Zm0 .893h1.778a.223.223 0 0 1 0 .446H9.11a.223.223 0 0 1 0-.446Zm0 .892h1.778a.223.223 0 0 1 0 .447H9.11a.223.223 0 0 1 0-.447Z" fill="#fff"/></svg>