<svg width="14" height="14" viewBox="0 0 14 14" fill="none" xmlns="http://www.w3.org/2000/svg">
<path d="M5.69086 8.12439C4.15508 6.595 3.18008 4.645 4.33351 3.48519C4.359 3.45971 4.38449 3.43422 4.42273 3.40873C4.86243 3.08373 5.27027 3.00725 5.53792 3.39598L6.34723 4.53666C6.62125 4.92539 6.5639 5.16117 6.25802 5.47343L6.00312 5.74745C5.92027 5.83666 5.95214 5.95137 5.99038 6.02784C6.12419 6.25088 6.44283 6.64598 6.80606 7.00919C7.17566 7.37879 7.55804 7.68471 7.78741 7.82487C7.87662 7.8759 8.01046 7.88863 8.08054 7.81215L8.34182 7.55726C8.63494 7.26414 8.88989 7.20039 9.27862 7.46806C9.80751 7.84399 10.1325 8.06704 10.4384 8.29008C10.8208 8.57687 10.7379 9.02295 10.4448 9.35432C10.4065 9.39889 10.3747 9.44352 10.3301 9.48815C9.17662 10.6415 7.22027 9.66656 5.69086 8.12439Z" fill="white"/>
</svg>
