<?xml version="1.0" encoding="UTF-8"?><svg id="Layer_2" xmlns="http://www.w3.org/2000/svg" viewBox="0 0 230.59 268.99"><defs><style>.cls-1{fill:#fff;}.cls-2{fill:#222;}.cls-3{fill:#181818;}.cls-4{fill:#5d5d5d;}</style></defs><g id="Laag_1"><g><g><path class="cls-4" d="m209.87,141.74c.34-.96.62-1.99.96-3.02,12.42-42.8,16.33-79.78,16.33-79.78l-.04-.02c-24.18-11.44-88.8-44.59-111.83-55.5C85.5,18.83,33.66,43.37,3.41,58.93h.01s19.87,187.54,111.85,206.62h0c45.21-9.39,72.92-59.4,89.52-107.83"/><path class="cls-3" d="m115.27,268.99c-.33,0-.65-.05-.95-.13C21.18,249.19.84,67.04.02,59.29c-.15-1.41.58-2.77,1.84-3.41,14.81-7.62,35.13-17.56,54.78-27.17C77.23,18.65,98.51,8.24,113.71.38c.94-.49,2.08-.51,3.04-.05,11.34,5.37,32.23,15.87,54.34,26.98,22.23,11.17,45.21,22.71,57.48,28.52,1.6.46,2.16,1.82,1.99,3.48-.04.38-4.09,37.77-16.44,80.37l-.44,1.4c-.19.62-.38,1.24-.59,1.83-.65,1.78-2.6,2.69-4.39,2.06-1.78-.64-2.71-2.61-2.06-4.39.17-.48.33-.98.48-1.49l.46-1.46c10.38-35.79,14.8-67.89,15.88-76.68-13.27-6.32-34.69-17.08-55.45-27.51-21.12-10.61-41.11-20.65-52.67-26.19-15.17,7.81-35.82,17.91-55.81,27.68-18.66,9.12-37.92,18.54-52.43,25.96,2.75,22.11,25.55,183.15,108.19,201.16,35.95-7.86,64.96-43.33,86.26-105.43.61-1.8,2.56-2.75,4.35-2.13,1.8.61,2.75,2.57,2.13,4.35-22.28,64.97-53.26,102.01-92.07,110.08-.23.05-.47.07-.7.07Z"/></g><path class="cls-1" d="m42.71,191.83l124.59,12.1s-5.01,31.39-9.08,35.32c-4.07,3.93-31.83,25.9-43.23,24.88-11.4-1.02-65.47-33.6-72.28-72.31Z"/><path class="cls-3" d="m115.27,268.99c-.33,0-.65-.05-.95-.13C21.18,249.19.84,67.04.02,59.29c-.15-1.41.58-2.77,1.84-3.41,14.81-7.62,35.13-17.56,54.78-27.17C77.23,18.65,98.51,8.24,113.71.38c.94-.49,2.08-.51,3.04-.05,11.34,5.37,32.23,15.87,54.34,26.98,22.23,11.17,45.21,22.71,57.48,28.52,1.6.46,2.16,1.82,1.99,3.48-.04.38-4.09,37.77-16.44,80.37l-.44,1.4c-.19.62-.38,1.24-.59,1.83-.65,1.78-2.6,2.69-4.39,2.06-1.78-.64-2.71-2.61-2.06-4.39.17-.48.33-.98.48-1.49l.46-1.46c10.38-35.79,14.8-67.89,15.88-76.68-13.27-6.32-34.69-17.08-55.45-27.51-21.12-10.61-41.11-20.65-52.67-26.19-15.17,7.81-35.82,17.91-55.81,27.68-18.66,9.12-37.92,18.54-52.43,25.96,2.75,22.11,25.55,183.15,108.19,201.16,35.95-7.86,64.96-43.33,86.26-105.43.61-1.8,2.56-2.75,4.35-2.13,1.8.61,2.75,2.57,2.13,4.35-22.28,64.97-53.26,102.01-92.07,110.08-.23.05-.47.07-.7.07Z"/><polygon class="cls-1" points="177.26 124.72 214.18 140.17 219.4 151.78 170.27 165.97 177.26 124.72"/><path class="cls-1" d="m115.27,259.96c-.33,0-.65-.05-.95-.13C26.66,241.29,7.52,69.98,6.75,62.69c-.15-1.41.58-2.77,1.84-3.41,13.93-7.17,33.05-16.51,51.53-25.56,19.33-9.45,39.32-19.23,53.58-26.6.94-.49,2.08-.52,3.04-.05,10.66,5.05,30.31,14.92,51.1,25.37,20.88,10.49,42.47,21.34,54,26.79,1.53.51,2.15,1.88,1.98,3.48-.03.35-3.85,35.51-15.46,75.58l-.41,1.31c-.18.58-.36,1.16-.56,1.72-.62,1.78-2.59,2.75-4.38,2.08-1.78-.63-2.71-2.59-2.08-4.38.16-.46.3-.92.45-1.41l.42-1.36c9.69-33.41,13.85-63.4,14.91-71.88-12.39-5.91-32.48-16-51.96-25.79-19.8-9.95-38.55-19.37-49.42-24.57-14.24,7.33-33.6,16.79-52.33,25.96-17.49,8.55-35.54,17.38-49.17,24.34,2.66,21.29,24.16,171.82,101.45,188.72,33.69-7.4,60.89-40.68,80.87-98.95.6-1.79,2.57-2.75,4.35-2.13,1.8.61,2.75,2.57,2.13,4.35-20.95,61.13-50.11,95.99-86.68,103.59-.23.05-.47.07-.7.07Z"/><path class="cls-2" d="m115.27,268.99c-.33,0-.65-.05-.95-.13C21.18,249.19.84,67.04.02,59.29c-.15-1.41.58-2.77,1.84-3.41,14.81-7.62,35.13-17.56,54.78-27.17C77.23,18.65,98.51,8.24,113.71.38c.94-.49,2.08-.51,3.04-.05,11.34,5.37,32.23,15.87,54.34,26.98,22.23,11.17,45.21,22.71,57.48,28.52,1.6.46,2.16,1.82,1.99,3.48-.04.38-4.09,37.77-16.44,80.37l-.44,1.4c-.19.62-.38,1.24-.59,1.83-.65,1.78-2.6,2.69-4.39,2.06-1.78-.64-2.71-2.61-2.06-4.39.17-.48.33-.98.48-1.49l.46-1.46c10.38-35.79,14.8-67.89,15.88-76.68-13.27-6.32-34.69-17.08-55.45-27.51-21.12-10.61-41.11-20.65-52.67-26.19-15.17,7.81-35.82,17.91-55.81,27.68-18.66,9.12-37.92,18.54-52.43,25.96,2.75,22.11,25.55,183.15,108.19,201.16,35.95-7.86,64.96-43.33,86.26-105.43.61-1.8,2.56-2.75,4.35-2.13,1.8.61,2.75,2.57,2.13,4.35-22.28,64.97-53.26,102.01-92.07,110.08-.23.05-.47.07-.7.07Z"/><path class="cls-2" d="m175.88,171.94c-1.39,0-2.7-.85-3.22-2.23-.66-1.78.24-3.75,2.02-4.41l41.84-15.58c.32-.12.49-.36.5-.7,0-.34-.15-.58-.46-.72l-38.57-16.59c-1.74-.74-2.55-2.77-1.8-4.5.74-1.75,2.75-2.57,4.5-1.8l38.57,16.59c2.87,1.23,4.68,4.06,4.61,7.19-.08,3.13-2.02,5.85-4.96,6.95l-41.84,15.58c-.4.15-.8.21-1.2.21Z"/><g><path class="cls-1" d="m168.75,205.53l1.23-9.62,3.45-27.4,5.35-42.43c.34-2.61.48-5.14.48-7.68,0-30.25-22.57-56.66-53.44-60.5-33.41-4.25-63.93,19.48-68.19,52.89l-6.38,50.2.14-.94s-2.28,18.75-8.68,36.44"/><path class="cls-2" d="m172.15,205.97l-6.81-.87,10.04-79.44c.31-2.34.46-4.71.46-7.25,0-28.97-21.68-53.52-50.43-57.1-31.44-4.01-60.34,18.38-64.36,49.92l-6.26,49.24h.01c-.09.78-2.4,19.35-8.86,37.19l-6.44-2.33c5.4-14.91,7.83-30.82,8.37-34.76h0s6.38-50.21,6.38-50.21c4.49-35.28,36.74-60.33,72.03-55.86,32.17,4.01,56.43,31.49,56.43,63.91,0,2.85-.17,5.51-.51,8.13l-10.04,79.44Z"/></g><path class="cls-2" d="m136.28,120.13c2.95-8.02,14.75-7.58,17.4.55.76,2.32,1.17,4.85.96,7.47-.23,2.93-1.22,5.64-2.54,8.04-4.46,8.09-16.72,5.76-17.52-3.44-.12-1.43-.14-2.98-.01-4.66.23-3,.86-5.65,1.71-7.96Z"/><path class="cls-2" d="m150.44,251.51c-.83,0-1.66-.3-2.32-.9-1.4-1.28-1.49-3.45-.21-4.84,14.73-16.04,17.86-43.96,17.89-44.24.19-1.88,1.88-3.26,3.77-3.05,1.88.2,3.25,1.89,3.05,3.77-.13,1.23-3.38,30.43-19.66,48.15-.68.74-1.6,1.11-2.53,1.11Z"/><path class="cls-2" d="m126.88,110.86c-.72,0-1.43-.22-2.04-.68-1.52-1.13-1.84-3.27-.72-4.78.27-.37,6.75-8.98,16.98-10.46,6.06-.88,12.01.86,17.75,5.17,1.51,1.14,1.82,3.29.68,4.8-1.13,1.51-3.28,1.84-4.8.68-5.85-4.4-11.74-5.18-17.52-2.29-4.63,2.32-7.54,6.15-7.56,6.19-.68.9-1.71,1.37-2.75,1.37Z"/></g></g></svg>