<?xml version="1.0" encoding="UTF-8"?><svg id="Layer_2" xmlns="http://www.w3.org/2000/svg" viewBox="0 0 39.07 45.57"><defs><style>.cls-1{fill:#fff;}.cls-2{fill:#0071eb;}.cls-3{fill:#022e3d;}.cls-4{fill:#181817;}</style></defs><g id="Laag_1"><g><path class="cls-2" d="M35.56,24.01c.06-.16,.1-.34,.16-.51,2.1-7.25,2.77-13.52,2.77-13.52h0c-4.1-1.94-15.05-7.56-18.95-9.41C14.49,3.19,5.7,7.35,.58,9.98h0s3.37,31.77,18.95,35.01h0c7.66-1.59,12.35-10.06,15.17-18.27"/><path class="cls-4" d="M19.53,45.57c-.06,0-.11,0-.16-.02C3.59,42.22,.14,11.36,0,10.05c-.02-.24,.1-.47,.31-.58,2.51-1.29,5.95-2.97,9.28-4.6C13.08,3.16,16.69,1.4,19.26,.06c.16-.08,.35-.09,.52,0,1.92,.91,5.46,2.69,9.21,4.57,3.77,1.89,7.66,3.85,9.74,4.83,.27,.08,.37,.31,.34,.59,0,.06-.69,6.4-2.79,13.62l-.07,.24c-.03,.11-.06,.21-.1,.31-.11,.3-.44,.46-.74,.35-.3-.11-.46-.44-.35-.74,.03-.08,.06-.17,.08-.25l.08-.25c1.76-6.06,2.51-11.5,2.69-12.99-2.25-1.07-5.88-2.89-9.39-4.66-3.58-1.8-6.97-3.5-8.92-4.44-2.57,1.32-6.07,3.03-9.46,4.69-3.16,1.55-6.42,3.14-8.88,4.4,.47,3.75,4.33,31.03,18.33,34.08,6.09-1.33,11.01-7.34,14.61-17.86,.1-.3,.43-.47,.74-.36,.3,.1,.47,.43,.36,.74-3.77,11.01-9.02,17.28-15.6,18.65-.04,0-.08,.01-.12,.01Z"/></g><path class="cls-1" d="M7.24,32.5l21.11,2.05s-.85,5.32-1.54,5.98-5.39,4.39-7.32,4.22-11.09-5.69-12.25-12.25Z"/><path class="cls-4" d="M19.53,45.57c-.06,0-.11,0-.16-.02C3.59,42.22,.14,11.36,0,10.05c-.02-.24,.1-.47,.31-.58,2.51-1.29,5.95-2.97,9.28-4.6C13.08,3.16,16.69,1.4,19.26,.06c.16-.08,.35-.09,.52,0,1.92,.91,5.46,2.69,9.21,4.57,3.77,1.89,7.66,3.85,9.74,4.83,.27,.08,.37,.31,.34,.59,0,.06-.69,6.4-2.79,13.62l-.07,.24c-.03,.11-.06,.21-.1,.31-.11,.3-.44,.46-.74,.35-.3-.11-.46-.44-.35-.74,.03-.08,.06-.17,.08-.25l.08-.25c1.76-6.06,2.51-11.5,2.69-12.99-2.25-1.07-5.88-2.89-9.39-4.66-3.58-1.8-6.97-3.5-8.92-4.44-2.57,1.32-6.07,3.03-9.46,4.69-3.16,1.55-6.42,3.14-8.88,4.4,.47,3.75,4.33,31.03,18.33,34.08,6.09-1.33,11.01-7.34,14.61-17.86,.1-.3,.43-.47,.74-.36,.3,.1,.47,.43,.36,.74-3.77,11.01-9.02,17.28-15.6,18.65-.04,0-.08,.01-.12,.01Z"/><g><path class="cls-1" d="M28.59,34.82l.21-1.63,.59-4.64,.91-7.19c.06-.44,.08-.87,.08-1.3,0-5.13-3.82-9.6-9.05-10.25-5.66-.72-10.83,3.3-11.55,8.96l-1.08,8.51,.02-.16s-.39,3.18-1.47,6.17"/><path class="cls-3" d="M29.17,34.9l-1.15-.15,1.7-13.46c.05-.4,.08-.8,.08-1.23,0-4.91-3.67-9.07-8.54-9.67-5.33-.68-10.22,3.11-10.9,8.46l-1.06,8.34h0c-.02,.13-.41,3.28-1.5,6.3l-1.09-.39c.91-2.53,1.33-5.22,1.42-5.89h0s1.08-8.51,1.08-8.51c.76-5.98,6.23-10.22,12.2-9.46,5.45,.68,9.56,5.33,9.56,10.83,0,.48-.03,.93-.09,1.38l-1.7,13.46Z"/></g><path class="cls-3" d="M23.09,20.35c.5-1.36,2.5-1.28,2.95,.09,.13,.39,.2,.82,.16,1.27-.04,.5-.21,.96-.43,1.36-.75,1.37-2.83,.98-2.97-.58-.02-.24-.02-.5,0-.79,.04-.51,.15-.96,.29-1.35Z"/><path class="cls-3" d="M25.49,42.61c-.14,0-.28-.05-.39-.15-.24-.22-.25-.58-.04-.82,2.5-2.72,3.03-7.45,3.03-7.5,.03-.32,.32-.55,.64-.52,.32,.03,.55,.32,.52,.64-.02,.21-.57,5.15-3.33,8.16-.11,.12-.27,.19-.43,.19Z"/><path class="cls-3" d="M21.5,18.78c-.12,0-.24-.04-.35-.11-.26-.19-.31-.55-.12-.81,.05-.06,1.14-1.52,2.88-1.77,1.03-.15,2.03,.15,3.01,.88,.26,.19,.31,.56,.11,.81-.19,.26-.55,.31-.81,.11-.99-.75-1.99-.88-2.97-.39-.78,.39-1.28,1.04-1.28,1.05-.11,.15-.29,.23-.47,.23Z"/><path class="cls-3" d="M19.53,44.36c-.06,0-.11,0-.16-.02C4.52,41.18,1.27,12,1.14,10.76c-.02-.24,.1-.47,.31-.58,2.36-1.22,5.6-2.81,8.73-4.35,3.28-1.61,6.66-3.28,9.08-4.53,.16-.08,.35-.09,.52,0,1.81,.86,5.13,2.54,8.66,4.32,3.54,1.79,7.2,3.63,9.15,4.56,.26,.09,.36,.32,.34,.59,0,.06-.65,6.05-2.62,12.87l-.07,.22c-.03,.1-.06,.2-.09,.29-.11,.3-.44,.47-.74,.35-.3-.11-.46-.44-.35-.75,.03-.08,.05-.16,.08-.24l.07-.23c1.64-5.69,2.35-10.8,2.53-12.24-2.1-1.01-5.5-2.73-8.8-4.39-3.35-1.69-6.53-3.3-8.37-4.19-2.41,1.25-5.69,2.86-8.87,4.42-2.96,1.46-6.02,2.96-8.33,4.15,.45,3.63,4.09,29.27,17.19,32.15,5.71-1.26,10.32-6.93,13.7-16.86,.1-.3,.43-.47,.74-.36,.3,.1,.47,.44,.36,.74-3.55,10.41-8.49,16.35-14.69,17.65-.04,0-.08,.01-.12,.01Z"/><path class="cls-1" d="M19.53,45.57c-.06,0-.11,0-.16-.02C3.59,42.22,.14,11.36,0,10.05c-.02-.24,.1-.47,.31-.58,2.51-1.29,5.95-2.97,9.28-4.6C13.08,3.16,16.69,1.4,19.26,.06c.16-.08,.35-.09,.52,0,1.92,.91,5.46,2.69,9.21,4.57,3.77,1.89,7.66,3.85,9.74,4.83,.27,.08,.37,.31,.34,.59,0,.06-.69,6.4-2.79,13.62l-.07,.24c-.03,.11-.06,.21-.1,.31-.11,.3-.44,.46-.74,.35-.3-.11-.46-.44-.35-.74,.03-.08,.06-.17,.08-.25l.08-.25c1.76-6.06,2.51-11.5,2.69-12.99-2.25-1.07-5.88-2.89-9.39-4.66-3.58-1.8-6.97-3.5-8.92-4.44-2.57,1.32-6.07,3.03-9.46,4.69-3.16,1.55-6.42,3.14-8.88,4.4,.47,3.75,4.33,31.03,18.33,34.08,6.09-1.33,11.01-7.34,14.61-17.86,.1-.3,.43-.47,.74-.36,.3,.1,.47,.43,.36,.74-3.77,11.01-9.02,17.28-15.6,18.65-.04,0-.08,.01-.12,.01Z"/><polygon class="cls-1" points="30.73 22.51 36.29 23.75 37.17 25.72 30.02 27.89 30.73 22.51"/><path class="cls-3" d="M29.8,29.13c-.24,0-.46-.14-.54-.38-.11-.3,.04-.64,.34-.75l7.09-2.64c.05-.02,.08-.06,.08-.12s-.02-.1-.08-.12l-6.53-2.81c-.3-.13-.43-.47-.3-.76,.13-.3,.47-.43,.76-.3l6.53,2.81c.49,.21,.79,.69,.78,1.22-.01,.53-.34,.99-.84,1.18l-7.09,2.64c-.07,.02-.14,.04-.2,.04Z"/></g></svg>